<?xml version="1.0" encoding="UTF-8"?>
<svg width="62px" height="62px" viewBox="0 0 62 62" version="1.1" xmlns="http://www.w3.org/2000/svg" xmlns:xlink="http://www.w3.org/1999/xlink">
    <title>SafeTravel_Logo_COLOUR</title>
    <g id="Landing-Page" stroke="none" stroke-width="1" fill="none" fill-rule="evenodd">
        <g id="Homepage" transform="translate(-92.000000, -38.000000)" fill-rule="nonzero">
            <g id="Top-Nav" transform="translate(0.000000, 28.000000)">
                <g id="SafeTravel_Logo_COLOUR" transform="translate(92.000000, 10.000000)">
                    <path d="M61.1218396,20.6378639 L31.9266738,0 L31.9266738,16.8390366 C31.9266738,17.6058195 32.3028063,18.3259484 32.9377968,18.7747853 L58.4635722,36.8187644 C59.9746453,31.5415182 60.8664892,26.1128553 61.1218396,20.6378639 Z" id="Path" fill="#F16566"></path>
                    <path d="M49.1327914,30.2229529 L58.4635722,36.8187644 C59.9746453,31.5415182 60.8664892,26.1128553 61.1218396,20.6378639 L48.3346738,11.5986178 C47.3833583,14.5803979 53.0314439,25.5078534 49.1327914,30.2229529 Z" id="Path" fill="#922424" opacity="0.2" style="mix-blend-mode: multiply;"></path>
                    <path d="M29.3598289,0 C29.3598289,0 17.3967059,0.225424084 5.65604278,5.00645026 C2.37432836,6.34778813 0.19468819,9.44155199 0.0797005348,12.921466 C-0.338994652,25.864712 1.51653476,57.6499267 29.3598289,61.5442094 L29.3598289,0 Z" id="Path" fill="#F16566"></path>
                    <path d="M0.0405989305,14.6996859 C-0.130096257,28.556733 2.71747594,57.8176335 29.3598289,61.544 L29.3598289,57.0000419 C12.8112513,52.993801 0.310117647,35.6245026 0.0405989305,14.6996859 Z" id="Path" fill="#922424" opacity="0.2" style="mix-blend-mode: multiply;"></path>
                    <path d="M40.8004706,36.6591832 C40.8220518,36.709755 40.8332314,36.7639982 40.833369,36.8188063 L40.833369,37.6565026 C40.833369,37.8878261 40.641833,38.0753508 40.4055615,38.0753508 C40.1692899,38.0753508 39.977754,37.8878261 39.977754,37.6565026 L39.977754,37.2921047 L32.855615,42.7695079 C32.2691315,43.2205913 31.9266738,43.9103506 31.9266738,44.6405445 L31.9266738,61.544 L39.977754,55.3519162 L39.977754,54.811267 C39.977754,54.5799436 40.1692899,54.3924188 40.4055615,54.3924188 C40.5996587,54.3939771 40.7676145,54.5250161 40.812492,54.7099058 L56.0954011,42.9558953 C56.1852579,42.8868786 56.2562499,42.7971407 56.3020321,42.6947016 C59.4878289,35.5437906 60.712385,27.5874346 61.0994652,21.0471204 L40.8004706,36.6591832 Z M40.833369,53.251644 C40.833369,53.4829674 40.641833,53.6704921 40.4055615,53.6704921 C40.1692899,53.6704921 39.977754,53.4829674 39.977754,53.251644 L39.977754,51.6919791 C39.977754,51.4606556 40.1692899,51.2731309 40.4055615,51.2731309 C40.641833,51.2731309 40.833369,51.4606556 40.833369,51.6919791 L40.833369,53.251644 Z M40.833369,50.1325654 C40.833369,50.3638889 40.641833,50.5514136 40.4055615,50.5514136 C40.1692899,50.5514136 39.977754,50.3638889 39.977754,50.1325654 L39.977754,48.5731099 C39.977754,48.3417865 40.1692899,48.1542618 40.4055615,48.1542618 C40.641833,48.1542618 40.833369,48.3417865 40.833369,48.5731099 L40.833369,50.1325654 Z M40.833369,47.0134869 C40.833369,47.2448104 40.641833,47.4323351 40.4055615,47.4323351 C40.1692899,47.4323351 39.977754,47.2448104 39.977754,47.0134869 L39.977754,45.4540733 C39.977754,45.2227498 40.1692899,45.0352251 40.4055615,45.0352251 C40.641833,45.0352251 40.833369,45.2227498 40.833369,45.4540733 L40.833369,47.0134869 Z M40.833369,43.8944084 C40.833369,44.1257318 40.641833,44.3132565 40.4055615,44.3132565 C40.1692899,44.3132565 39.977754,44.1257318 39.977754,43.8944084 L39.977754,42.3349948 C39.977754,42.1036713 40.1692899,41.9161466 40.4055615,41.9161466 C40.641833,41.9161466 40.833369,42.1036713 40.833369,42.3349948 L40.833369,43.8944084 Z M40.833369,40.7753298 C40.833369,41.0066533 40.641833,41.194178 40.4055615,41.194178 C40.1692899,41.194178 39.977754,41.0066533 39.977754,40.7753298 L39.977754,39.2159162 C39.977754,38.9845928 40.1692899,38.7970681 40.4055615,38.7970681 C40.641833,38.7970681 40.833369,38.9845928 40.833369,39.2159162 L40.833369,40.7753298 Z" id="Shape" fill="#CA3F3C"></path>
                    <path d="M31.9266738,56.8943665 L31.9266738,61.544 L56.0953583,42.9558953 C56.1852181,42.8868713 56.2562224,42.7971363 56.3020321,42.6947016 C58.8919358,36.8813403 60.1856257,30.5357906 60.7869091,24.8514346 C60.7853262,24.8548272 49.6936898,45.4279791 31.9266738,56.8943665 Z" id="Path" fill="#922424" opacity="0.2" style="mix-blend-mode: multiply;"></path>
                </g>
            </g>
        </g>
    </g>
</svg>