<?xml version="1.0" encoding="UTF-8"?>
<svg width="1354px" height="249px" viewBox="0 0 1354 249" version="1.1" xmlns="http://www.w3.org/2000/svg" xmlns:xlink="http://www.w3.org/1999/xlink">
    <title>SafeTravel-hero</title>
    <g id="Landing-Page" stroke="none" stroke-width="1" fill="none" fill-rule="evenodd">
        <g id="Homepage" transform="translate(-32.000000, -485.000000)">
            <g id="Hero-Banner" transform="translate(0.000000, 209.000000)">
                <g id="SafeTravel-hero" transform="translate(32.000000, 276.000000)">
                    <path d="M1175.35913,201.918271 L1078.77148,149.511111 L1076.93998,126.076768 L1032.98319,129.826263 L1033.89894,170.133333 L1026.11486,168.258586 L1023.36762,100.767677 L1009.63141,100.29899 L1009.63141,82.9575758 L1002.76307,82.9575758 L1003.22118,61.8666667 C1003.22118,61.8666667 1000.47394,13.5919192 998.184339,12.6545455 C995.895206,11.7171717 976.664051,14.5292929 976.664051,14.5292929 L973.91681,49.6808081 L942.780945,51.5555556 L942.780945,69.8343434 L926.297031,72.1777778 L925.838923,58.1171717 L923.092151,56.7111111 L923.092151,6.56161616 L909.813117,0 L897.908407,11.2484848 L896.99266,55.3050505 L889.666215,52.4929293 C889.666215,52.4929293 874.556156,53.430303 870.893168,51.0868687 C867.23018,48.7434343 854.409254,51.5555556 854.409254,51.5555556 L855.325001,62.3353535 L852.120121,62.3353535 L852.120121,97.9555556 C849.83052,103.111111 823.273389,98.4242424 823.273389,98.4242424 L823.731497,83.4262626 L817.778907,82.9575758 L817.3208,75.4585859 L809.079077,75.9272727 L808.16333,28.1212121 C801.752633,3.74949495 780.232345,22.9656566 780.232345,32.3393939 C780.232345,41.7131313 778.85849,87.1757576 778.85849,87.1757576 L778.400382,119.515152 L771.989685,119.046465 L771.073938,66.5535354 L767.41095,65.6161616 L766.952842,46.4 C766.952842,46.4 763.747494,38.4323232 759.169227,30.4646465 C754.590493,22.4969697 739.479965,18.2787879 738.106579,25.7777778 C736.732724,33.2767677 739.022326,137.793939 739.022326,137.793939 L726.659039,141.543434 L726.200931,127.482828 L699.643801,127.482828 L699.185693,106.860606 L690.028223,105.923232 C690.028223,105.923232 691.402078,102.642424 688.654369,101.236364 C685.906659,99.830303 674.917696,100.29899 674.917696,100.29899 L674.001949,93.2686869 L661.181491,91.3939394 C661.181491,91.3939394 661.181491,52.9616162 660.723383,49.2121212 C660.265276,45.4626263 657.060396,44.0565657 657.060396,44.0565657 L631.876651,44.5252525 L630.502797,118.577778 L622.261074,119.983838 L619.055725,106.860606 C619.055725,106.860606 618.597618,61.8666667 618.597618,57.6484848 C618.597618,53.430303 592.956234,52.9616162 589.750885,52.0242424 C586.545537,51.0868687 573.725079,41.7131313 573.725079,41.7131313 L570.977838,61.3979798 L558.61502,61.8666667 L559.530767,82.020202 L544.878347,82.9575758 L544.878347,94.2060606 L541.215359,94.6747475 L540.299612,106.860606 L532.515529,107.79798 L532.515529,207.628283 L479.401268,204.816162 L479.401268,78.7393939 C479.401268,78.7393939 475.280172,82.4888889 473.906786,82.020202 C472.5334,81.5515152 469.786159,76.3959596 469.786159,76.3959596 L469.328051,56.2424242 L432.239596,52.0242424 L432.697704,200.59798 L427.203222,202.00404 L426.745583,190.286869 L422.166848,190.755556 L420.79393,52.0242424 C420.79393,52.0242424 402.478522,52.0242424 395.152546,52.0242424 C387.826571,52.0242424 390.573812,62.8040404 385.995077,63.7414141 C381.416342,64.6787879 373.632258,48.2747475 373.632258,48.2747475 L358.979838,48.7434343 C358.979838,48.7434343 361.727079,191.224242 358.979838,196.379798 C356.232598,201.535354 345.701273,189.349495 345.701273,189.349495 L341.122538,189.818182 L342.038285,181.381818 L332.880816,181.381818 L331.506961,96.0808081 L337.001443,95.1434343 C337.001443,95.1434343 337.001443,85.769697 336.085696,83.8949495 C335.169949,82.020202 313.191553,85.3010101 313.191553,85.3010101 L311.818167,78.7393939 L299.912988,79.2080808 L299.45488,86.2383838 L294.418038,87.1757576 C282.055219,91.3939394 173.537096,88.1131313 173.537096,88.1131313 L172.621349,82.020202 L158.884676,82.9575758 L158.426568,86.2383838 C158.426568,86.2383838 144.232256,84.8323232 143.774148,86.7070707 C143.31604,88.5818182 134.158571,90.4565657 130.95369,90.9252525 C127.748342,91.3939394 114.012137,91.8626263 114.012137,91.8626263 C119.506619,100.767677 152.474447,100.767677 152.474447,100.767677 L152.016339,171.539394 L134.616678,170.133333 L130.037943,118.577778 L108.059548,119.046465 L97.9858626,157.010101 L84.2496581,129.826263 L66.3928264,129.826263 C64.5613324,129.357576 65.4770794,159.822222 65.4770794,159.822222 C65.4770794,159.822222 65.4770794,159.822222 56.777249,149.979798 C48.0774186,140.137374 45.7882853,149.979798 45.7882853,149.979798 C45.3301776,176.694949 76.9241507,195.911111 76.9241507,195.911111 C76.9241507,195.911111 78.2980054,199.660606 77.8398977,201.535354 C77.38179,203.410101 67.3085733,204.347475 65.0189717,205.284848 C62.7293701,206.222222 38.4618412,223.094949 32.9673593,223.563636 C27.4728775,224.032323 0,230.125253 0,230.125253 L1185,232 L1175.35913,201.918271 Z M158.91763,207.379232 L158,204.078758 C164.423413,204.550254 190.576587,197.006313 192.870897,196.063321 C195.164739,195.120328 197,205.02175 197,205.02175 C197,205.02175 175.434979,212.094194 158.91763,207.379232 Z M270.526681,192.673267 L262.17556,192.207921 L262.17556,194.534653 C262.17556,194.534653 246.394548,194.928337 244.999307,194.991158 C244.993763,194.99395 244.988219,195 244.982213,195 C244.863479,195 244.876877,194.996743 244.999307,194.991158 C246.43659,194.260564 244,101 244,101 L272,102.39604 L270.526681,192.673267 Z" id="SG-landscape" fill="#FCF1F2" fill-rule="nonzero"></path>
                    <g id="Man" transform="translate(1008.000000, 0.000000)">
                        <polygon id="Rectangle" fill="#403E56" fill-rule="nonzero" transform="translate(24.769626, 63.992067) rotate(-30.000000) translate(-24.769626, -63.992067) " points="15.3736041 40.7934207 34.2009047 40.7791059 34.1656481 87.1907141 15.3383475 87.2050289"></polygon>
                        <polygon id="Rectangle" fill="#F26767" fill-rule="nonzero" transform="translate(17.813506, 52.948752) rotate(-30.925300) translate(-17.813506, -52.948752) " points="10.2506897 52.9546062 25.376322 52.9428978 25.376322 52.9428978"></polygon>
                        <polygon id="Rectangle" fill="#F26767" fill-rule="nonzero" transform="translate(19.876878, 55.834828) rotate(-30.925300) translate(-19.876878, -55.834828) " points="12.3140614 55.8406819 27.4396937 55.8289735 27.4396937 55.8289735"></polygon>
                        <polygon id="Rectangle" fill="#F26767" fill-rule="nonzero" transform="translate(21.270907, 58.278604) rotate(-30.925300) translate(-21.270907, -58.278604) " points="13.7080905 58.2844586 28.8337228 58.2727502 28.8337228 58.2727502"></polygon>
                        <polygon id="Rectangle" fill="#F26767" fill-rule="nonzero" transform="translate(23.361942, 61.420575) rotate(-30.925300) translate(-23.361942, -61.420575) " points="15.7991258 61.4264294 30.9247581 61.414721 30.9247581 61.414721"></polygon>
                        <polygon id="Rectangle" fill="#F26767" fill-rule="nonzero" transform="translate(26.498421, 65.959212) rotate(-30.925300) translate(-26.498421, -65.959212) " points="18.9355566 65.9650662 34.0612859 65.9533577 34.0612859 65.9533577"></polygon>
                        <path d="M78.9314471,90.2294526 C78.9314471,90.2294526 87.7436152,85.8379947 94.0143597,87.4746089 L78.9314471,45.3275732 L78.9314471,41 L100.280339,93.629858 L100.280339,93.629858 C105.618015,104.054424 112.366206,127.813618 100.860803,129.721174 C87.8075605,131.88506 64.311781,140 64.311781,140 L59.0905602,92.9345314 L78.9314471,90.2294526 Z" id="Path" fill="#302E41" fill-rule="nonzero"></path>
                        <path d="M27.0414428,76.0174213 C27.0414428,76.0174213 13.8512304,59.3843301 10.4315424,65.2548119 C7.01185444,71.1252936 25.7893762,81 25.7893762,81 L27.0414428,76.0174213 Z" id="Path" fill="#F9B7B9" fill-rule="nonzero"></path>
                        <path d="M33.0506523,77.1199962 L26.9302402,74 C26.9302402,74 23.0353031,83.3599886 23.0353031,84.9200342 C23.0353031,86.4800797 29.1558169,87 29.1558169,87 L33.0506523,77.1199962 Z" id="Path" fill="#D1CDE2" fill-rule="nonzero"></path>
                        <ellipse id="Oval" fill="#F9B7B9" fill-rule="nonzero" transform="translate(57.447493, 20.813569) rotate(-55.554300) translate(-57.447493, -20.813569) " cx="57.4474934" cy="20.8135685" rx="13.8362878" ry="13.8275449"></ellipse>
                        <path d="M71.4052141,23 C71.4052141,23 76.1805274,40.134373 79.6532646,41.1730496 C83.1260018,42.2117262 66.1958476,50 66.1958476,50 C66.1958476,50 60.9864812,35.4615603 58.3818502,31.8269504 C55.7772191,28.1923405 71.4052141,23 71.4052141,23 Z" id="Path" fill="#F9B7B9" fill-rule="nonzero"></path>
                        <path d="M98.3211277,122.643153 C109.447578,120.816925 103.306267,98.5225362 98.0940765,88 C98.5663963,88.3694507 98.9897705,88.8004727 99.353504,89.2821777 C104.515197,96.1661747 114.838772,125.820472 101.934351,127.938588 C89.0299291,130.056703 65.8020269,138 65.8020269,138 L65.0997698,131.732349 C71.7371073,129.546191 88.2021815,124.304108 98.3211277,122.643153 Z" id="Path" fill="#010101" fill-rule="nonzero" opacity="0.1"></path>
                        <path d="M117.125557,215 C117.125557,215 130.183138,225.77555 129.138509,226.853027 C128.09388,227.930503 117.125557,245.171403 107.724083,246.787765 C98.3226093,248.404127 94.1442824,248.404029 94.1442824,246.787765 C94.1442824,245.171502 96.7557606,241.39999 101.456116,239.783628 C106.156472,238.167266 106.679168,227.391814 106.156853,225.236763 C105.634538,223.081712 117.125557,215 117.125557,215 Z" id="Path" fill="#302E41" fill-rule="nonzero"></path>
                        <path d="M78.1760447,137 L86.5730163,176.035096 C86.5730163,176.035096 121.210453,214.549711 120.160807,215.070192 C119.111162,215.590673 108.614995,226 106.5158,226 C104.416605,226 68.2047007,185.403462 68.2047007,185.403462 L55.0844206,151.573077 L78.1760447,137 Z" id="Path" fill="#302E41" fill-rule="nonzero"></path>
                        <path d="M78.1760447,137 L86.5730163,176.035096 C86.5730163,176.035096 121.210453,214.549711 120.160807,215.070192 C119.111162,215.590673 108.614995,226 106.5158,226 C104.416605,226 68.2047007,185.403462 68.2047007,185.403462 L55.0844206,151.573077 L78.1760447,137 Z" id="Path" fill="#010101" fill-rule="nonzero" opacity="0.1"></path>
                        <path d="M83.1273983,122.915478 C83.1273983,122.915478 78.8920963,141.236158 67.24504,153.629924 C55.5979837,166.02369 50.3038321,191.348897 50.3038321,191.348897 L38.6567758,242 C38.6567758,242 18.0096907,239.305823 19.0685403,233.91737 L30.1861718,189.193477 C30.1861718,189.193477 42.8920778,127.226614 49.7744073,122.915969 C56.6567367,118.605325 83.1273983,122.915478 83.1273983,122.915478 Z" id="Path" fill="#302E41" fill-rule="nonzero"></path>
                        <path d="M39.3403434,236.766498 C39.3403434,236.766498 42.4027226,246.829211 40.3611365,247.888261 C38.3195504,248.947311 2.08232911,251.065894 0.0408361933,243.651385 C0.0408361933,243.651385 -0.979956845,239.944131 7.18582853,239.944131 C15.3516139,239.944131 24.0282616,232 24.0282616,232 L39.3403434,236.766498 Z" id="Path" fill="#302E41" fill-rule="nonzero"></path>
                        <path d="M56.691117,45.0451922 C56.691117,45.0451922 70.124049,30.9772041 73.7403066,32.0593798 C77.3565642,33.1415555 77.3568471,38.5522366 77.3568471,38.5522366 C77.3568471,38.5522366 88.7231306,40.1755002 87.6898064,79.1328385 C86.6564821,118.090177 96.9895358,122.418781 93.3729953,124.583132 C89.7564548,126.747484 48.4244289,136.486769 46.8743483,126.747484 C45.3242677,117.008199 45.8410241,79.6739264 49.9742267,67.7699935 C54.1074293,55.8660606 59.2748991,48.2916206 56.691117,45.0451922 Z" id="Path" fill="#3C7CA4" fill-rule="nonzero"></path>
                        <path d="M74.3462826,52.0882604 C74.3462826,52.0882604 90.457785,59.3647598 81.3279075,73.3991066 C72.19803,87.4334533 65.2164051,102.506717 55.5494645,101.986927 C45.8825238,101.467136 30.8452458,92.6308852 26.5488386,92.6308852 C22.2524314,92.6308852 28.15993,77.5573367 31.3822109,77.0375461 C34.6044918,76.5177554 49.6419659,85.3540063 49.6419659,85.3540063 C49.6419659,85.3540063 55.0124994,50.0090979 74.3462826,52.0882604 Z" id="Path" fill="#3C7CA4" fill-rule="nonzero"></path>
                        <path d="M63.8782955,28.4396602 C62.827529,27.9666245 61.7385441,27.6060967 60.6261468,27.3629787 C56.6443391,25.8661312 54.2428781,21.3620695 54.9738488,16.7618074 C55.1272823,16.1957306 55.1961992,15.6055344 55.1778591,15.0146847 C55.032723,13.707552 53.8292482,12.8640135 52.6751457,12.5645097 C51.49903,12.4119457 50.334335,12.165396 49.1901085,11.8267759 C47.4870283,10.9746171 46.3159399,9.18571048 46.1105768,7.12260962 C45.9344523,5.08240625 46.3433319,3.03255539 47.2787457,1.26618718 L47.695523,2.59930518 C48.3312899,2.00122944 48.8032301,1.21683391 49.0576415,0.335375358 C50.0210538,0.515316379 50.8309265,1.23912981 51.1957446,2.24627789 C51.8647868,2.68481853 51.9612958,0.884068793 52.7003909,0.618418349 C53.0253523,0.573399175 53.353818,0.663478293 53.6226295,0.871334964 C55.1119051,1.64333627 56.8423601,0.983351247 58.4399755,0.555577421 C61.2064553,-0.181677343 64.0902097,-0.185223796 66.8581509,0.545224715 C68.7249227,0.952600137 70.4497814,1.93897455 71.833209,3.39025194 C72.8623167,4.68892886 73.6528973,6.19878556 74.1604176,7.83477229 C75.7091961,11.7407649 76.3547401,16.0150878 76.0383377,20.2689937 C75.6502099,23.7189778 74.3513777,26.9639356 72.3056933,29.5945046 C71.2399954,30.9589912 67.7630626,35.7191656 65.8567302,34.9075134 C63.4611455,33.8877719 66.7006251,30.0981637 63.8782955,28.4396602 Z" id="Path" fill="#302E41" fill-rule="nonzero"></path>
                        <path d="M47.6359994,21.3597667 C52.0467792,23.9904492 54.8764122,25.3057905 56.1248984,25.3057905 C56.4332527,25.3057905 56.7107883,25.245488 56.9575051,25.124883 C57.1245059,25.0432393 57.3260698,25.1124418 57.4077078,25.2794454 C57.4420669,25.3497324 57.4508678,25.4297933 57.4325975,25.5058657 L56.617396,28.9001497 C56.5010455,29.3846023 56.2080641,29.8081845 55.795811,30.0879685 L49.2718519,34.5155869 C48.7287939,34.8841689 48.0394546,34.9628303 47.4273127,34.7260878 C46.0150407,34.1798993 45.1700367,33.3444613 44.8923008,32.2197738 C44.7282599,31.5554925 43.6261047,29.6412089 43.4352282,27.7841639 C43.3697257,27.1468872 43.7924702,25.3781917 44.7034617,22.4780774 L44.7034741,22.4780813 C45.0344949,21.4242867 46.1571096,20.8383626 47.2109043,21.1693834 C47.359534,21.2160714 47.5021996,21.2799657 47.6359994,21.3597667 Z" id="Man-Mask" fill="#E4EAED" transform="translate(50.928637, 27.553827) rotate(-32.000000) translate(-50.928637, -27.553827) "></path>
                    </g>
                    <g id="Woman" transform="translate(1152.221028, 11.000000)">
                        <ellipse id="Oval" fill="#403E56" fill-rule="nonzero" cx="141.216424" cy="233" rx="5.0076746" ry="5"></ellipse>
                        <path d="M144.221028,145.557866 L132.863264,116.171085 C132.863264,116.171085 134.625729,110.637204 129.925973,111.018872 C125.226218,111.40054 112.693448,115.598627 112.693448,115.598627 C112.693448,115.598627 108.385362,115.980295 114.260123,121.895844 L124.442881,153 L127.77184,151.473415 L116.805655,120.56005 C116.636623,120.00303 116.708269,119.40291 117.004011,118.898581 C117.299752,118.394252 117.793955,118.029429 118.37224,117.888548 C120.526284,117.31609 128.750878,113.881252 129.534125,115.980295 C130.317373,118.079338 140.500221,148.229455 140.500221,148.229455 L144.221028,145.557866 Z" id="Path" fill="#403E56" fill-rule="nonzero"></path>
                        <path d="M113.030651,167.447834 L134.163873,230.055339 C135.873535,231.178178 137.728869,232.066491 139.679282,232.696056 C141.442774,233.296436 143.260778,233.726413 145.107885,233.979976 C145.795834,234.03359 146.488015,233.979374 147.158904,233.819325 C158.02562,231.669895 195.299309,211.927337 195.299309,211.927337 C195.299309,211.927337 176.241661,153.05787 173.033972,145.956187 C169.826283,138.854504 162.656018,141.4709 162.656018,141.4709 C162.656018,141.4709 126.437061,151.157209 121.238617,152.956993 C121.131175,152.994329 121.036846,153.027955 120.955631,153.05787 C118.666139,153.875953 116.6891,155.377067 115.29687,157.354418 L115.294968,157.356302 C110.011619,160.532749 113.030651,167.447834 113.030651,167.447834 Z" id="Path" fill="#FFFFFF" fill-rule="nonzero"></path>
                        <path d="M128.19647,150.297894 L128.29835,150.659806 C129.930066,150.203107 131.320497,153.839466 131.3343,153.875743 L154.490011,218 L154.8437,217.872555 L151.907646,209.741674 L183.446317,195.827432 L185.929908,202.954092 L186.285495,202.830352 L165.56938,143.384848 L165.557992,143.366839 C165.484408,143.250424 163.737785,140.524016 161.665854,141.072917 L161.762127,141.436553 C163.493136,140.976321 165.080339,143.324616 165.228112,143.550122 L169.613,156.13244 L136.458917,166.958104 L131.688421,153.74623 C131.625274,153.580612 130.160741,149.748218 128.19647,150.297894 Z M169.73636,156.487545 L172.966322,165.756038 L140.327073,177.671231 L136.586331,167.311917 L169.73636,156.487545 Z M144.180736,188.342996 L140.454919,178.025129 L173.090114,166.111401 L176.29687,175.313285 L144.180736,188.342996 Z M176.420834,175.668993 L179.936336,185.7567 L147.874636,198.572452 L144.308668,188.697411 L176.420834,175.668993 Z M151.779886,209.387172 L148.002481,198.926178 L180.0603,186.11215 L183.321663,195.470603 L151.779886,209.387172 Z" id="Shape" fill="#010101" fill-rule="nonzero" opacity="0.2"></path>
                        <path d="M115.022535,162.695494 C116.92953,165.794788 138.287639,230.686282 138.287639,230.686282 C138.68337,231.384281 139.145116,232.041453 139.666331,232.648481 C141.448591,233.270758 143.28594,233.716423 145.152701,233.979248 C145.848,234.034814 146.547575,233.97862 147.225633,233.812735 C145.913612,233.332282 142.982602,231.776866 141.529462,227.199554 C139.622553,221.194728 118.645774,157.852792 118.645774,157.852792 C118.645774,157.852792 119.301741,153.076039 121.029519,150 C120.920817,150.038699 120.825485,150.073581 120.743522,150.104647 C118.429646,150.95254 116.431538,152.508393 115.024457,154.557874 L115.022535,154.559826 C115.022535,154.559826 113.115539,159.596201 115.022535,162.695494 Z" id="Path" fill="#010101" fill-rule="nonzero" opacity="0.2"></path>
                        <path d="M119.735743,180 L121.873338,186.258459 C121.873338,186.258459 120.124421,198.591172 129.257774,206.690176 L131.201074,212.948466 L129.193039,213 L127.072273,206.991535 C122.515492,201.175465 120.031064,194.136672 119.978656,186.894157 L118.18112,180 L119.735743,180 Z" id="Path" fill="#403E56" fill-rule="nonzero"></path>
                        <ellipse id="Oval" fill="#403E56" fill-rule="nonzero" cx="157.240982" cy="233" rx="5.0076746" ry="5"></ellipse>
                        <ellipse id="Oval" fill="#403E56" fill-rule="nonzero" cx="195.299309" cy="215" rx="5.0076746" ry="5"></ellipse>
                        <path d="M47.0721412,40 C47.0721412,40 36.7272107,41.6250302 36.2570247,45.2812274 C35.9880012,47.8489027 35.9880012,50.4323247 36.2570247,53 L47.0721412,40 Z" id="Path" fill="#585B8A" fill-rule="nonzero"></path>
                        <path d="M103.158097,131.168602 C103.158097,131.168602 75.3460147,141.114482 57.0942848,132.46595 C38.8425549,123.817418 16.6797953,113.006752 16.6797953,113.006752 C16.6797953,113.006752 5.81559456,113.871366 7.11935715,107.385138 C8.42311974,100.89891 17.1143255,63.2776064 37.1042621,50.737286 C37.1042621,50.737286 49.2721394,35.1698766 56.2251384,36.034747 C63.1781374,36.8996173 90.1211591,100.898739 90.1211591,100.898739 L103.158097,131.168602 Z" id="Path" fill="#585B8A" fill-rule="nonzero"></path>
                        <path d="M103.158097,131.168602 C103.158097,131.168602 75.3460147,141.114482 57.0942848,132.46595 C38.8425549,123.817418 16.6797953,113.006752 16.6797953,113.006752 C16.6797953,113.006752 5.81559456,113.871366 7.11935715,107.385138 C8.42311974,100.89891 17.1143255,63.2776064 37.1042621,50.737286 C37.1042621,50.737286 49.2721394,35.1698766 56.2251384,36.034747 C63.1781374,36.8996173 90.1211591,100.898739 90.1211591,100.898739 L103.158097,131.168602 Z" id="Path" fill="#010101" fill-rule="nonzero" opacity="0.2"></path>
                        <path d="M117.900684,106 L119.428387,110.308475 C119.428387,110.308475 129.35823,117.202 125.15716,121.941374 C120.95609,126.680747 114.632295,113.970687 114.632295,113.970687 L112.171911,108.585051 L117.900684,106 Z" id="Path" fill="#A0626B" fill-rule="nonzero"></path>
                        <polygon id="Path" fill="#A0626B" fill-rule="nonzero" points="20.8245288 186.108665 19.0291635 215.205071 28.4574979 219 32.0491174 184"></polygon>
                        <polygon id="Path" fill="#A0626B" fill-rule="nonzero" points="59.0905602 184 71.5029107 200.199644 75.0491712 211 83.9152612 210.549243 86.1320031 199.749777 73.7196526 187.149955"></polygon>
                        <ellipse id="Oval" fill="#A0626B" fill-rule="nonzero" cx="57.5882579" cy="19.5" rx="11.5176516" ry="11.5"></ellipse>
                        <path d="M56.0859555,27.7058464 L56.9105328,38 L70.1074444,33.8823386 C70.1074444,33.8823386 65.1585923,26.0588307 66.3957849,24 L56.0859555,27.7058464 Z" id="Path" fill="#A0626B" fill-rule="nonzero"></path>
                        <path d="M56.7213454,35.0731842 C56.7213454,35.0731842 65.0868098,37.2683033 69.9555704,32 L80.1227936,36.8293142 L66.8766809,86 L39.0598619,78.5365776 L43.4752327,68.8780361 C43.4752327,68.8780361 37.7352681,62.2926787 43.9167349,56.1463104 C43.9167349,56.1463104 45.2414161,43.8536607 49.2151974,41.2195525 C51.8892997,39.3878099 54.4005438,37.3314914 56.7213454,35.0731842 L56.7213454,35.0731842 Z" id="Path" fill="#EBEA73" fill-rule="nonzero"></path>
                        <path d="M68.3565259,31 C68.3565259,31 53.4275194,42.8246985 69.6738653,77.8611344 C85.9202112,112.89757 99.5323998,142.678363 104.801062,140.926424 C110.069724,139.174485 128.072813,125.597935 121.925171,120.780558 C115.777529,115.963181 89.871621,100.634605 86.3589187,80.4887392 C82.8462164,60.3428731 91.1888735,39.7589139 91.1888735,39.7589139 L68.3565259,31 Z" id="Path" fill="#585B8A" fill-rule="nonzero"></path>
                        <polygon id="Path" fill="#585B8A" fill-rule="nonzero" points="85.2737873 46 122.18726 109.612399 111.885273 114 80.1227936 70.1292004"></polygon>
                        <path d="M39.5374469,76 L36.4126541,76 L24.8073666,100.148831 C24.8073666,100.148831 2.93576108,163.970813 5.16755395,176.907705 C7.39934682,189.844597 90.4236852,188.103595 85.9581554,187.688448 C81.7098228,187.293449 59.6076774,88.9599413 66.095137,83.5464776 L39.5374469,76 Z" id="Path" fill="#302E41" fill-rule="nonzero"></path>
                        <path d="M21.2789025,212.368402 C21.2789025,212.368402 20.3988732,209 16.877536,209 C13.3561989,209 13.3564603,213.631542 13.3564603,213.631542 L3.23333483,222.473692 C3.23333483,222.473692 -5.56939812,233 5.87411986,233 C17.3176378,233 17.3180735,230.473886 17.3180735,230.473886 C17.3180735,230.473886 20.3990475,227.526586 23.0398325,229.210746 C25.6806175,230.894905 31.8425654,227.527003 30.9622747,225.842344 C30.081984,224.157684 28.7669936,213.262453 27.8840018,215.131407 C27.00101,217.000361 21.2789025,212.368402 21.2789025,212.368402 Z" id="Path" fill="#302E41" fill-rule="nonzero"></path>
                        <path d="M80.2359236,207.297246 C80.2359236,207.297246 81.0654143,206.853898 76.916975,207.297246 C72.7685357,207.740593 71.1089793,207.297246 71.1089793,207.297246 L74.0130182,219.268597 C74.0130182,219.268597 71.5238068,239.664256 79.8210139,237.89069 C88.1182211,236.117124 88.1182211,223.702425 88.1182211,223.702425 C88.1182211,223.702425 86.8736564,212.617856 87.7033936,211.731073 C88.5331307,210.84429 88.1182211,198.873026 86.8739028,198.873026 C85.6295846,198.873026 79.6220183,196 79.6220183,196 C79.6220183,196 83.5543794,207.297246 80.2359236,207.297246 Z" id="Path" fill="#302E41" fill-rule="nonzero"></path>
                        <path d="M56.0023495,19.320173 C55.2522446,18.2243948 55.631098,16.7345828 55.1052467,15.5269785 C54.2792121,13.6310524 51.7119196,13.1864326 49.5575117,13.0135342 C48.1303208,12.8396413 46.6853174,12.8433075 45.2591265,13.0244399 C43.9811673,13.2260466 42.8772117,13.9856645 42.2779769,15.0757313 C41.959231,15.6824277 42.0397572,13.781552 42.2438571,11.3415119 C42.6681467,6.23256069 46.5199417,1.9682226 51.7750323,0.789508561 L51.8654586,0.769542614 C54.4706692,0.103612066 57.1770318,-0.132759305 59.8665473,0.0707344459 C62.5806631,0.289856365 65.0961724,1.50984947 66.873389,3.46897229 C67.6359573,4.38522473 68.1751559,5.46556706 69.026471,6.30875084 C70.5220842,7.78992215 72.738986,8.32891884 74.7760961,9.01623401 C77.1111943,9.7308136 79.2600094,10.9073806 81.0806538,12.4682457 C82.9069894,14.0522839 84.0019479,16.2556142 84.1281866,18.6006439 C84.1711457,21.3067848 82.357317,24.0995847 79.4345069,24.6330446 C78.9262914,24.7171693 78.44614,24.9138458 78.0330325,25.2071075 C75.2422819,27.2607479 78.4257635,29.4104428 78.4036652,31.7223821 C78.3852794,33.6518645 76.1224131,34.9087964 74.0919326,34.998727 C70.1765542,35.0656144 66.7602984,32.4898768 65.9434924,28.8550875 C65.7341255,27.2553803 65.7777427,25.6349637 66.0729001,24.0474886 C66.3008662,22.2177522 62.1489485,17.909302 64.8916132,21.0672773 C65.4268694,21.6674939 65.7882575,22.3896209 65.9402219,23.1626113 C66.3966844,25.6854514 63.9778925,26.534088 62.4521372,27.931956 C60.7434477,29.54505 60.1500318,31.9399564 60.922139,34.106719 C58.3270979,31.8756065 57.7709273,28.2082407 59.5976551,25.3731269 C60.0891214,24.6578762 60.7221936,24.0356601 61.1882026,23.3052252 C61.9153252,22.1655722 62.1158894,19.6866069 60.0806356,19.754726 C58.6279815,19.8035503 57.119021,20.9511728 56.0023495,19.320173 Z" id="Path" fill="#302E41" fill-rule="nonzero"></path>
                        <path d="M48.9596855,18.5256432 C54.3212686,21.0401852 57.7054751,22.2974562 59.1123049,22.2974562 C59.2930012,22.2974562 59.4645546,22.283659 59.6269653,22.2560646 C60.0232843,22.1886943 60.3991568,22.4553908 60.4664945,22.8517154 C60.4853493,22.962688 60.4782102,23.0765214 60.4456383,23.1842687 L59.3954284,26.658345 C59.2167947,27.2492621 58.7752875,27.7245717 58.1991291,27.9462347 L51.2417869,30.6229039 C50.5922608,30.8728011 49.8595311,30.7670798 49.3071345,30.3437706 C48.191365,29.4887409 47.476981,28.5724549 47.1639826,27.5949124 C46.8569678,26.6360575 46.5093498,24.2853379 46.1211286,20.5427536 L46.1211209,20.5427544 C46.0071541,19.4440758 46.8054208,18.4610324 47.9040994,18.3470656 C48.2656516,18.3095615 48.6305889,18.3712994 48.9596855,18.5256432 Z" id="Woman-Mask" fill="#E4EAED" transform="translate(53.778972, 24.000000) rotate(-32.000000) translate(-53.778972, -24.000000) "></path>
                    </g>
                </g>
            </g>
        </g>
    </g>
</svg>