<svg xmlns="http://www.w3.org/2000/svg" viewBox="0 0 186.1558 190.9356"><defs><style>.cls-1{isolation:isolate;}.cls-2{fill:#f16566;}.cls-3{fill:#ca3f3c;}.cls-4{fill:#922424;opacity:0.2;mix-blend-mode:multiply;}</style></defs><title>SafeTravel_Logo_COLOUR</title><g class="cls-1"><g id="Layer_2" data-name="Layer 2"><g id="Layer_1-2" data-name="Layer 1"><path class="cls-2" d="M0,186.6739l1.7861-1.7861a8.8366,8.8366,0,0,0,7.1094,3.749c3.3247,0,5.9243-1.8921,5.9243-5.0049,0-3.3247-3.0415-4.6333-6.207-5.977-3.6963-1.5567-7.251-3.148-7.251-7.6753,0-4.4038,3.3955-6.95,7.4278-6.95a9.8368,9.8368,0,0,1,7.6577,3.5547l-1.5743,1.5913c-2.0869-2.21-3.7846-2.8824-6.03-2.8824-2.6353,0-5.0938,1.5386-5.0938,4.5274,0,3.289,3.06,4.5093,6.2608,5.8535,3.5014,1.45,7.18,3.1128,7.18,7.8877,0,4.8633-3.8022,7.3389-8.1352,7.3389A11.9826,11.9826,0,0,1,0,186.6739Z"/><path class="cls-2" d="M20.8667,181.1739a9.668,9.668,0,0,1,9.4795-9.709,9.0529,9.0529,0,0,1,7.7456,4.085v-3.7315h2.2993v18.7285H38.0918v-3.7314a9.0529,9.0529,0,0,1-7.7456,4.085A9.66,9.66,0,0,1,20.8667,181.1739Zm17.2251,0a7.463,7.463,0,1,0-7.4629,7.498A7.453,7.453,0,0,0,38.0918,181.1739Z"/><path class="cls-2" d="M49.8506,168.4761v3.3423h5.0757v2.0869H49.8506v16.6416H47.5513V173.9053h-3.148v-2.0869h3.148v-3.59a4.8517,4.8517,0,0,1,5.0405-5.1992,8.1631,8.1631,0,0,1,2.3345.3886v2.1578a5.4047,5.4047,0,0,0-2.0161-.4419C51.0884,165.1339,49.8506,166.3892,49.8506,168.4761Z"/><path class="cls-2" d="M76.2178,181.5274H58.94a7.584,7.584,0,0,0,14.0244,3.6787l1.9629.8311a9.5765,9.5765,0,0,1-8.3829,4.8633,9.7178,9.7178,0,1,1,9.709-9.9566Zm-17.1192-1.8745H73.8657a7.4323,7.4323,0,0,0-7.3393-6.0835A7.5077,7.5077,0,0,0,59.0986,179.6529Z"/><path class="cls-3" d="M97.8442,168.0694H90.8589v22.4775H85.6064V168.0694H78.603v-4.6865H97.8442Z"/><path class="cls-3" d="M110.8066,171.6417v4.8105c-3.9262,0-6.2251,1.4146-6.2251,5.146v8.9487H99.541V171.8184h4.8106v3.59A7.8654,7.8654,0,0,1,110.8066,171.6417Z"/><path class="cls-3" d="M112.5381,181.1387c0-5.6416,4.1738-9.7622,9.0723-9.7622a7.6135,7.6135,0,0,1,6.2075,2.812l.0175-2.37h5.0406v18.7285h-5.0581v-2.3876a7.6664,7.6664,0,0,1-6.2075,2.7763C116.7119,190.9356,112.5381,186.7979,112.5381,181.1387Zm15.8281,0a5.3948,5.3948,0,1,0-5.3765,5.5A5.2549,5.2549,0,0,0,128.3662,181.1387Z"/><path class="cls-3" d="M156.1826,171.8184l-8.0639,18.7285h-4.1563l-8.0112-18.7285h5.3764l4.7217,13.0161,4.7573-13.0161Z"/><path class="cls-3" d="M177.0493,181.97H162.4771a5.0033,5.0033,0,0,0,5.1459,4.9165,5.1959,5.1959,0,0,0,4.6338-2.6l3.9966,1.68c-1.5034,3.0415-4.6157,4.9341-8.6128,4.9341-6.03,0-10.1157-4.2974-10.1157-9.709a9.6573,9.6573,0,0,1,9.939-9.7617,9.3039,9.3039,0,0,1,9.6382,9.55Zm-14.3955-3.0771H172.08a4.334,4.334,0,0,0-4.5625-3.75A4.7737,4.7737,0,0,0,162.6538,178.8927Z"/><path class="cls-3" d="M181.1152,163.3829h5.0406v27.164h-5.0406Z"/><path class="cls-2" d="M170.9223,49.2729,102.6786,0V40.2032a5.7,5.7,0,0,0,2.3635,4.6216l59.6665,43.08A172.2185,172.2185,0,0,0,170.9223,49.2729Z"/><path class="cls-4" d="M142.8979,72.1573l21.8107,15.7475a172.2185,172.2185,0,0,0,6.2137-38.6319l-29.89-21.5812C138.8086,34.8107,152.011,60.9,142.8979,72.1573Z"/><path class="cls-2" d="M96.6786,0S68.7148.5382,41.271,11.9529A21.2213,21.2213,0,0,0,28.2363,30.85c-.9787,30.902,3.3586,106.7892,68.4423,116.0868Z"/><path class="cls-4" d="M28.1449,35.0955c-.399,33.0837,6.2572,102.9441,68.5337,111.8408V136.0876C57.9963,126.5227,28.7749,85.0535,28.1449,35.0955Z"/><path class="cls-3" d="M123.4211,87.5238a.9949.9949,0,0,1,.0769.3811v2a1,1,0,0,1-2,0v-.87L104.85,102.1122a5.6807,5.6807,0,0,0-2.1714,4.4671v40.357l18.8194-14.7836v-1.2908a1,1,0,0,1,1-1,.986.986,0,0,1,.9512.758l35.7238-28.0627a1.6159,1.6159,0,0,0,.483-.6236C167.1028,84.8608,169.9652,65.865,170.87,50.25Zm.0769,39.6145a1,1,0,1,1-2,0v-3.7237a1,1,0,0,1,2,0Zm0-7.4468a1,1,0,0,1-2,0v-3.7232a1,1,0,0,1,2,0Zm0-7.4468a1,1,0,0,1-2,0v-3.7231a1,1,0,0,1,2,0Zm0-7.4468a1,1,0,0,1-2,0v-3.7231a1,1,0,0,1,2,0Zm0-7.4468a1,1,0,0,1-2,0V93.628a1,1,0,0,1,2,0Z"/><path class="cls-4" d="M102.6786,135.8353v11.101l56.4943-44.3791a1.6169,1.6169,0,0,0,.4831-.6236c6.0539-13.8794,9.0779-29.0294,10.4834-42.6008C170.1357,59.3409,144.209,108.4593,102.6786,135.8353Z"/></g></g></g></svg>