<?xml version="1.0" encoding="UTF-8"?>
<svg width="80px" height="80px" viewBox="0 0 80 80" version="1.1" xmlns="http://www.w3.org/2000/svg" xmlns:xlink="http://www.w3.org/1999/xlink">
    <title>SafeTravel_Logo_COLOUR</title>
    <g id="Landing-Page" stroke="none" stroke-width="1" fill="none" fill-rule="evenodd">
        <g id="Homepage" transform="translate(-80.000000, -38.000000)" fill-rule="nonzero">
            <g id="Top-Nav" transform="translate(0.000000, 28.000000)">
                <g id="SafeTravel_Logo_COLOUR" transform="translate(80.000000, 10.000000)">
                    <path d="M0,78.1880209 L0.764106952,77.4399162 C1.46206598,78.4105729 2.59320638,78.9945654 3.8055615,79.010178 C5.22789305,79.010178 6.34002139,78.2176754 6.34002139,76.9138848 C6.34002139,75.5213403 5.03884492,74.9732356 3.68462032,74.4104293 C2.10331551,73.7584084 0.582588235,73.0918953 0.582588235,71.195644 C0.582588235,69.3511204 2.03520856,68.2846492 3.76025668,68.2846492 C5.02533687,68.2735885 6.22837501,68.8203429 7.03627807,69.7735288 L6.36278075,70.4400419 C5.4699893,69.5143874 4.74370053,69.2327539 3.7831016,69.2327539 C2.65570053,69.2327539 1.60393583,69.8771937 1.60393583,71.1290471 C1.60393583,72.5066387 2.91302674,73.0177592 4.28235294,73.5807749 C5.78027807,74.1881047 7.3540107,74.8845654 7.3540107,76.8845236 C7.3540107,78.9215079 5.72740107,79.9584084 3.87371123,79.9584084 C2.38076151,79.9487177 0.966307875,79.3022753 0,78.1880209 Z" id="Path" fill="#F16566"></path>
                    <path d="M8.92693048,75.884356 C8.91691716,73.6717183 10.7227717,71.8608784 12.9823316,71.8177592 C14.3138822,71.7923448 15.5653651,72.4385496 16.2959572,73.5287539 L16.2959572,71.965822 L17.279615,71.965822 L17.279615,79.8102199 L16.2959572,79.8102199 L16.2959572,78.2473298 C15.5653651,79.3375342 14.3138822,79.983739 12.9823316,79.9583246 C10.7190297,79.916968 8.91092948,78.1005895 8.92693048,75.884356 Z M16.2960154,75.884356 C16.2876968,74.1599151 14.8546184,72.7677741 13.0932803,72.7731515 C11.3319422,72.7785601 9.90778541,74.1794495 9.9105377,75.9039073 C9.91329798,77.6283651 11.341926,79.0248824 13.1032727,79.0248824 C13.9529819,79.0259998 14.7679991,78.6950113 15.3674235,78.1053801 C15.9668479,77.5157489 16.3010884,76.7162558 16.2960154,75.884356 L16.2960154,75.884356 Z" id="Shape" fill="#F16566"></path>
                    <path d="M21.3264599,70.5659058 L21.3264599,71.965822 L23.4978824,71.965822 L23.4978824,72.8399162 L21.3264599,72.8399162 L21.3264599,79.8102199 L20.3428021,79.8102199 L20.3428021,72.8399162 L18.9960642,72.8399162 L18.9960642,71.965822 L20.3428021,71.965822 L20.3428021,70.4621571 C20.2999157,69.8844344 20.5108844,69.3162503 20.9227015,68.9003632 C21.3345186,68.484476 21.9080398,68.2604169 22.4991658,68.2844817 C22.8383794,68.2909507 23.1748199,68.3457816 23.4978824,68.4472461 L23.4978824,69.3510366 C23.2251949,69.235668 22.9323553,69.172826 22.6353797,69.1659476 C21.856,69.1660314 21.3264599,69.6918115 21.3264599,70.5659058 Z" id="Path" fill="#F16566"></path>
                    <path d="M32.6065455,76.0324188 L25.2149733,76.0324188 C25.2742463,77.4261491 26.2552994,78.6189384 27.6334523,78.972867 C29.0116051,79.3267956 30.4643407,78.7590369 31.2147166,77.5732356 L32.0544599,77.9213403 C31.3240914,79.18615 29.9522073,79.9653742 28.4681925,79.958372 C26.185116,79.9596738 24.3281107,78.1582051 24.3084892,75.9230239 C24.2888677,73.6878427 26.1139728,71.8553905 28.3967357,71.8183197 C30.6794985,71.7812489 32.5656719,73.5534322 32.6217754,75.7880209 L32.6065455,76.0324188 Z M25.2828235,75.247288 L31.6002995,75.247288 C31.3211249,73.7661056 29.9988874,72.693064 28.460492,72.6992251 C26.9124863,72.6878431 25.5764426,73.7591705 25.2828235,75.247288 L25.2828235,75.247288 Z" id="Shape" fill="#F16566"></path>
                    <polygon id="Path" fill="#CA3F3C" points="41.8584813 70.3955602 38.8701176 70.3955602 38.8701176 79.8102199 36.6230588 79.8102199 36.6230588 70.3955602 33.6269519 70.3955602 33.6269519 68.4326283 41.8584813 68.4326283"></polygon>
                    <path d="M47.403893,71.8918115 L47.403893,73.9066806 C45.7242353,73.9066806 44.7407487,74.4991832 44.7407487,76.0620733 L44.7407487,79.8102199 L42.584385,79.8102199 L42.584385,71.965822 L44.6423957,71.965822 L44.6423957,73.4694869 C45.2326142,72.5216707 46.270692,71.9286048 47.403893,71.8918115 Z" id="Path" fill="#CA3F3C"></path>
                    <path d="M48.1446417,75.8696126 C48.1446417,73.5066387 49.9302246,71.780733 52.0258396,71.780733 C53.0511138,71.7418982 54.0351424,72.1783282 54.6814545,72.958534 L54.6889412,71.9658639 L56.8453476,71.9658639 L56.8453476,79.8102618 L54.6814545,79.8102618 L54.6814545,78.8102199 C54.0298579,79.582023 53.047813,80.0120436 52.0258396,79.9730681 C49.9302246,79.9730262 48.1446417,78.2399581 48.1446417,75.8696126 Z M54.9160214,75.8696126 C54.8912546,74.6266985 53.8456654,73.6368159 52.5760491,73.6543086 C51.3064328,73.6718013 50.2897085,74.6900983 50.3006749,75.9332025 C50.3116413,77.1763067 51.3461789,78.1772579 52.6159144,78.1732775 C53.2397424,78.1880882 53.841792,77.9483728 54.2779963,77.5114937 C54.7142006,77.0746146 54.94531,76.4798823 54.9160214,75.8696126 L54.9160214,75.8696126 Z" id="Shape" fill="#CA3F3C"></path>
                    <polygon id="Path" fill="#CA3F3C" points="66.8160856 71.965822 63.3662888 79.8102199 61.5881925 79.8102199 58.1609412 71.965822 60.4610053 71.965822 62.480984 77.4175916 64.5161925 71.965822"></polygon>
                    <path d="M75.743016,76.217801 L69.5089198,76.217801 C69.5186089,76.7777673 69.7568275,77.3106388 70.1704249,77.6975229 C70.5840224,78.0844069 71.1385828,78.2931104 71.7103743,78.2770681 C72.5251091,78.2973193 73.2858341,77.8794197 73.6927487,77.1880628 L75.4025241,77.8917277 C74.7593583,79.1656545 73.427893,79.9583665 71.7179037,79.9583665 C69.1382246,79.9583665 67.3903316,78.1584084 67.3903316,75.8917696 C67.377692,74.7906588 67.8241248,73.7320962 68.6265576,72.9604829 C69.4289904,72.1888697 70.5180558,71.7709089 71.6423102,71.8030995 C72.7410273,71.7640269 73.8073163,72.1716415 74.5883042,72.9292764 C75.3692921,73.6869114 75.7954105,74.7270783 75.7656043,75.8030995 L75.743016,76.217801 Z M69.5845134,74.9289634 L73.6171123,74.9289634 C73.4879128,73.9852503 72.6359143,73.2996429 71.6652406,73.3582827 C70.6740999,73.317555 69.7964154,73.9800582 69.5845134,74.9288796 L69.5845134,74.9289634 Z" id="Shape" fill="#CA3F3C"></path>
                    <polygon id="Path" fill="#CA3F3C" points="77.4824385 68.4326283 79.6388449 68.4326283 79.6388449 79.8102199 77.4824385 79.8102199"></polygon>
                    <path d="M73.1218396,20.6378639 L43.9266738,0 L43.9266738,16.8390366 C43.9266738,17.6058195 44.3028063,18.3259484 44.9377968,18.7747853 L70.4635722,36.8187644 C71.9746453,31.5415182 72.8664892,26.1128553 73.1218396,20.6378639 Z" id="Path" fill="#F16566"></path>
                    <path d="M61.1327914,30.2229529 L70.4635722,36.8187644 C71.9746453,31.5415182 72.8664892,26.1128553 73.1218396,20.6378639 L60.3346738,11.5986178 C59.3833583,14.5803979 65.0314439,25.5078534 61.1327914,30.2229529 Z" id="Path" fill="#922424" opacity="0.2" style="mix-blend-mode: multiply;"></path>
                    <path d="M41.3598289,0 C41.3598289,0 29.3967059,0.225424084 17.6560428,5.00645026 C14.3743284,6.34778813 12.1946882,9.44155199 12.0797005,12.921466 C11.6610053,25.864712 13.5165348,57.6499267 41.3598289,61.5442094 L41.3598289,0 Z" id="Path" fill="#F16566"></path>
                    <path d="M12.0405989,14.6996859 C11.8699037,28.556733 14.7174759,57.8176335 41.3598289,61.544 L41.3598289,57.0000419 C24.8112513,52.993801 12.3101176,35.6245026 12.0405989,14.6996859 Z" id="Path" fill="#922424" opacity="0.2" style="mix-blend-mode: multiply;"></path>
                    <path d="M52.8004706,36.6591832 C52.8220518,36.709755 52.8332314,36.7639982 52.833369,36.8188063 L52.833369,37.6565026 C52.833369,37.8878261 52.641833,38.0753508 52.4055615,38.0753508 C52.1692899,38.0753508 51.977754,37.8878261 51.977754,37.6565026 L51.977754,37.2921047 L44.855615,42.7695079 C44.2691315,43.2205913 43.9266738,43.9103506 43.9266738,44.6405445 L43.9266738,61.544 L51.977754,55.3519162 L51.977754,54.811267 C51.977754,54.5799436 52.1692899,54.3924188 52.4055615,54.3924188 C52.5996587,54.3939771 52.7676145,54.5250161 52.812492,54.7099058 L68.0954011,42.9558953 C68.1852579,42.8868786 68.2562499,42.7971407 68.3020321,42.6947016 C71.4878289,35.5437906 72.712385,27.5874346 73.0994652,21.0471204 L52.8004706,36.6591832 Z M52.833369,53.251644 C52.833369,53.4829674 52.641833,53.6704921 52.4055615,53.6704921 C52.1692899,53.6704921 51.977754,53.4829674 51.977754,53.251644 L51.977754,51.6919791 C51.977754,51.4606556 52.1692899,51.2731309 52.4055615,51.2731309 C52.641833,51.2731309 52.833369,51.4606556 52.833369,51.6919791 L52.833369,53.251644 Z M52.833369,50.1325654 C52.833369,50.3638889 52.641833,50.5514136 52.4055615,50.5514136 C52.1692899,50.5514136 51.977754,50.3638889 51.977754,50.1325654 L51.977754,48.5731099 C51.977754,48.3417865 52.1692899,48.1542618 52.4055615,48.1542618 C52.641833,48.1542618 52.833369,48.3417865 52.833369,48.5731099 L52.833369,50.1325654 Z M52.833369,47.0134869 C52.833369,47.2448104 52.641833,47.4323351 52.4055615,47.4323351 C52.1692899,47.4323351 51.977754,47.2448104 51.977754,47.0134869 L51.977754,45.4540733 C51.977754,45.2227498 52.1692899,45.0352251 52.4055615,45.0352251 C52.641833,45.0352251 52.833369,45.2227498 52.833369,45.4540733 L52.833369,47.0134869 Z M52.833369,43.8944084 C52.833369,44.1257318 52.641833,44.3132565 52.4055615,44.3132565 C52.1692899,44.3132565 51.977754,44.1257318 51.977754,43.8944084 L51.977754,42.3349948 C51.977754,42.1036713 52.1692899,41.9161466 52.4055615,41.9161466 C52.641833,41.9161466 52.833369,42.1036713 52.833369,42.3349948 L52.833369,43.8944084 Z M52.833369,40.7753298 C52.833369,41.0066533 52.641833,41.194178 52.4055615,41.194178 C52.1692899,41.194178 51.977754,41.0066533 51.977754,40.7753298 L51.977754,39.2159162 C51.977754,38.9845928 52.1692899,38.7970681 52.4055615,38.7970681 C52.641833,38.7970681 52.833369,38.9845928 52.833369,39.2159162 L52.833369,40.7753298 Z" id="Shape" fill="#CA3F3C"></path>
                    <path d="M43.9266738,56.8943665 L43.9266738,61.544 L68.0953583,42.9558953 C68.1852181,42.8868713 68.2562224,42.7971363 68.3020321,42.6947016 C70.8919358,36.8813403 72.1856257,30.5357906 72.7869091,24.8514346 C72.7853262,24.8548272 61.6936898,45.4279791 43.9266738,56.8943665 Z" id="Path" fill="#922424" opacity="0.2" style="mix-blend-mode: multiply;"></path>
                </g>
            </g>
        </g>
    </g>
</svg>