<?xml version="1.0" encoding="UTF-8"?>
<svg width="597px" height="435px" viewBox="0 0 597 435" version="1.1" xmlns="http://www.w3.org/2000/svg" xmlns:xlink="http://www.w3.org/1999/xlink">
    <title>SafeTravel-process</title>
    <g id="Landing-Page" stroke="none" stroke-width="1" fill="none" fill-rule="evenodd">
        <g id="Homepage" transform="translate(-767.000000, -1315.000000)" fill-rule="nonzero">
            <g id="How-to-Apply" transform="translate(0.000000, 725.000000)">
                <g id="Step-2" transform="translate(2.000000, 569.000000)">
                    <g id="SafeTravel-process" transform="translate(765.000000, 21.000000)">
                        <path d="M421.071547,84.9866321 C395.48641,85.1454679 370.251694,90.9465529 347.168035,101.975948 C309.465159,59.9508424 255.643793,35.9580013 199.169193,35.9998901 C88.8899538,35.9621749 0,126.572925 0,236.796975 C0,345.709419 88.3347107,434 197.301205,434 L424.058529,434 C519.571482,434 597,356.610066 597,261.14483 C597,164.432162 517.829654,84.2633309 421.071547,84.9866321 Z" id="Path" fill="#F0F0F0"></path>
                        <path d="M494.191142,418.453142 L508.71979,353.144031 L533.073443,279.728234 L530.029116,367.419056 L527.855931,398.431935 C536.493506,391.860869 544.498298,384.489743 551.765013,376.415514 L556.412641,341.928078 L571,269.149531 L570.618858,242 L499.58681,242 L485.380593,343.966718 L467,428 C476.314972,425.592425 485.410998,422.398794 494.191142,418.453142 L494.191142,418.453142 Z" id="Path" fill="#7297B0"></path>
                        <path d="M544.490626,67.9630006 C544.490626,67.9630006 532.471782,63.6603169 524.745265,80.8708575 C517.018747,98.0813982 505,117.013051 505,117.013051 L511.867897,118.734066 C511.867897,118.734066 513.584847,106.686766 517.877271,104.965653 L516.160321,120.455082 C516.160321,120.455082 567.669791,138.526081 590.84915,118.734066 L589.990626,112.710367 C589.990626,112.710367 593.424526,113.570924 593.424526,118.734066 L596,116.152495 C596,116.152495 593.424526,110.989352 585.698494,104.105194 C580.627206,99.5866672 578.884478,90.9903337 578.285576,85.6157189 C577.836906,81.1277604 576.045477,76.880514 573.146258,73.4310633 C568.011689,67.4662308 558.655731,61.126538 544.490626,67.9630006 Z" id="Path" fill="#302E41"></path>
                        <polygon id="Path" fill="#F9BEBF" points="474 215.999684 485.000316 230 492 221.999684 486 212"></polygon>
                        <circle id="Oval" fill="#F9BEBF" cx="548.5" cy="101.5" r="20.5"></circle>
                        <path d="M560.93761,114 C560.93761,114 558.875024,131.548422 559.906268,135.677416 C560.937512,139.806411 563,146 563,146 L530,139.806508 C530,139.806508 539.281293,120.193589 537.218609,117.096844 C535.155926,114 560.93761,114 560.93761,114 Z" id="Path" fill="#F9BEBF"></path>
                        <path d="M564.881413,139.104214 L531.322071,132 L512,249.729719 C520.70956,247.356287 529.939495,247.71057 538.440658,250.744621 C552.677639,255.819224 572,250.744621 572,250.744621 L567.932236,140.119115 L564.881413,139.104214 Z" id="Path" fill="#C6585F"></path>
                        <path d="M537.700049,122 L525.786569,128.304307 L510.540603,131.361123 L494.278735,170.079852 L496.311505,197.590515 C496.311505,197.590515 479.032866,229.176899 477,246.498499 C477,246.498499 479.032866,272.99016 512.573855,271.97135 L534.934418,209.817487 C534.934418,209.817487 544.081978,162.947411 534.934418,149.701533 C534.934418,149.701726 541.482836,124.865946 537.700049,122 Z" id="Path" fill="#7297B0"></path>
                        <path d="M517,131.561642 L513.709338,131 L510.902459,131.561642 C510.902459,131.561642 503.78887,132.578365 495.658751,139.695425 C487.528631,146.812485 460.090034,169.180677 458.057456,175.281014 C456.024878,181.381351 457.041215,191.548676 460.090034,197.64911 C463.138852,203.749543 469.236201,211.883037 469.236201,211.883037 L472.284923,219 L489.561113,213.916289 C489.561113,213.916289 478.382368,192.565399 479.398705,183.414411 L499.723617,167.146653 L517,131.561642 Z" id="Path" fill="#7297B0"></path>
                        <path d="M560.9913,126 L576.034193,145.088971 L584,155.315732 L574.042647,190.085691 L569.064018,219.742464 C569.064018,219.742464 581.012822,266.784459 571.055469,281.101187 C571.055469,281.101187 565.081114,288.259551 563.089663,280.078453 C561.098211,271.897354 561.098116,233.036846 561.098116,233.036846 C561.098116,233.036846 553.13231,181.904496 557.115213,168.610114 C561.098116,155.315732 556.901391,128.386509 560.9913,126 Z" id="Path" fill="#7297B0"></path>
                        <path d="M575.168763,274.016444 L575.168763,284.18098 C575.168763,284.18098 573.101523,317.723922 583.437335,313.658146 C593.773146,309.59237 586.538049,284.18098 586.538049,284.18098 L585.504477,273 L575.168763,274.016444 Z" id="Path" fill="#F9BEBF"></path>
                        <path d="M525.790926,102 C533.548213,96.4072944 539.827543,89.9656702 543.981356,82.3030449 C543.981356,82.3030449 558.217349,98.060609 566.917149,98.8485257 C575.616949,99.6364425 567.708075,79.939391 567.708075,79.939391 L551.89023,76 L536.863311,77.5757371 L525,85.4548083 L525.790926,102 Z" id="Path" fill="#302E41"></path>
                        <polygon id="Path" fill="#7297B0" points="574.999802 153 582.999486 156.049643 584.000158 166.214796 588 228.222909 585.999605 274.98281 570.99996 276 565.999447 224.157041 564 167.231987"></polygon>
                        <path d="M214.391486,434 L384.608514,434 C451.492798,395.368881 484.140135,316.506061 464.195408,241.750109 C444.250681,166.994157 376.690984,115 299.5,115 C222.309016,115 154.749319,166.994157 134.804592,241.750109 C114.859865,316.506061 147.507202,395.368881 214.391486,434 L214.391486,434 Z" id="Path" fill="#626077"></path>
                        <rect id="Rectangle" fill="#626077" x="277" y="74" width="44" height="51"></rect>
                        <ellipse id="Oval" fill="#626077" cx="299" cy="73" rx="51" ry="14"></ellipse>
                        <path d="M247.495033,434 L350.504483,434 C422.885872,408.966841 466.54479,335.557608 453.797821,260.319915 C441.050852,185.082221 375.622572,130 299,130 C222.377428,130 156.949148,185.082221 144.202179,260.319915 C131.45521,335.557608 175.114128,408.966841 247.495517,434 L247.495033,434 Z" id="Path" fill="#FFFFFF"></path>
                        <circle id="Oval" fill="#626077" cx="298" cy="286" r="21"></circle>
                        <rect id="Rectangle" fill="#626077" x="294" y="137" width="9" height="17"></rect>
                        <rect id="Rectangle" fill="#626077" x="294" y="418" width="9" height="17"></rect>
                        <rect id="Rectangle" fill="#626077" x="148" y="281" width="17" height="9"></rect>
                        <rect id="Rectangle" fill="#626077" x="431" y="281" width="17" height="9"></rect>
                        <polygon id="Path" fill="#626077" points="293 294.791621 300.686773 277 397 331"></polygon>
                        <circle id="Oval" fill="#84CFC8" cx="62" cy="39" r="39"></circle>
                        <circle id="Oval" fill="#639E9A" cx="96" cy="135" r="96"></circle>
                        <polygon id="Path" fill="#5B5544" points="96.5237706 176.856747 117 148 96.2442926 184 94 179.999893"></polygon>
                        <polygon id="Path" fill="#5B5544" points="93.4752884 206.856747 73 178 93.7557074 214 96 209.999893"></polygon>
                        <path d="M104,411 L93.4761965,120 L85,399.763786 C91.1178636,403.844694 97.4607136,407.595726 104,411 L104,411 Z" id="Path" fill="#5B5544"></path>
                    </g>
                </g>
            </g>
        </g>
    </g>
</svg>