<?xml version="1.0" encoding="UTF-8"?>
<svg width="560px" height="399px" viewBox="0 0 560 399" version="1.1" xmlns="http://www.w3.org/2000/svg" xmlns:xlink="http://www.w3.org/1999/xlink">
    <title>SafeTravel-Success</title>
    <g id="Landing-Page" stroke="none" stroke-width="1" fill="none" fill-rule="evenodd">
        <g id="Homepage" transform="translate(-80.000000, -1808.000000)" fill-rule="nonzero">
            <g id="How-to-Apply" transform="translate(0.000000, 725.000000)">
                <g id="Step-3" transform="translate(0.000000, 1049.000000)">
                    <g id="SafeTravel-Success" transform="translate(80.000000, 34.000000)">
                        <path d="M384.572454,49 C308.715236,49.2485431 241.66122,98.3929135 218.532946,170.692394 C194.236222,148.715204 162.566576,136.690195 129.817361,137.00696 C57.7335181,137.590872 0,197.162333 0,269.302076 L0,269.302076 C0,303.700083 13.6543154,336.689258 37.9593135,361.012344 C62.2643115,385.335429 95.2289886,399 129.601477,399 L386.827338,399 C482.467958,399 560,321.410396 560,225.69877 L560,225.69877 C560,129.14004 481.059095,48.6994704 384.572454,49 Z" id="Path" fill="#F0F0F0"></path>
                        <path d="M130.182481,398 L387.099383,398 C403.208237,398.0127 419.24,395.773552 434.730405,391.347236 C438.828542,385.185881 441.010325,377.946308 441,370.54364 L441,241.495262 C441,230.802493 436.610178,220.579833 428.859708,213.223662 L275.340634,67.5159425 C261.972684,54.8280192 241.027392,54.8280192 227.659443,67.5159425 L66.6445535,220.337996 C63.6794056,223.152279 62,227.063223 62,231.154015 L62,370.543187 C62,373.460405 62.3412713,376.367585 63.0124429,379.206343 C83.2510986,391.534739 106.492678,398.037497 130.182481,398 Z" id="Path" fill="#626077"></path>
                        <rect id="Rectangle" fill="#F26767" x="111" y="114" width="280" height="280" rx="18.2538"></rect>
                        <path d="M129.211201,398 L386.236324,398 C403.226719,398.011882 420.126228,395.52748 436.390692,390.626647 C436.789927,388.942893 436.994364,387.219044 437,385.48885 L437,234 L61,234 L61,378.638981 C81.4745097,391.328211 105.106358,398.035809 129.211201,398 L129.211201,398 Z" id="Path" fill="#010101" opacity="0.1"></path>
                        <polygon id="Path" fill="#010101" opacity="0.1" points="391 240 391 394 111 394 111 240 250.999433 307.718583"></polygon>
                        <rect id="Rectangle" fill="#F3F3F3" x="135" y="140" width="78" height="11"></rect>
                        <rect id="Rectangle" fill="#F3F3F3" x="129" y="180" width="232" height="6"></rect>
                        <rect id="Rectangle" fill="#F3F3F3" x="129" y="202" width="232" height="6"></rect>
                        <rect id="Rectangle" fill="#F3F3F3" x="129" y="223" width="232" height="6"></rect>
                        <path d="M439.410771,56.1435416 C438.936568,60.3447598 435.713912,63.7288713 434.519916,67.7862715 C432.722585,73.8932468 435.830369,80.4463054 440.081446,85.2026521 C447.009692,92.8725803 456.73764,97.4653696 467.094152,97.9559764 C468.600404,98.0876574 470.117992,97.9232336 471.560375,97.4720818 C472.848175,96.9567808 474.007688,96.1688366 474.958339,95.1630041 C478.059176,91.8217735 480.020595,87.5928052 480.563214,83.0784672 C481.089847,78.5942491 481.140413,74.067373 480.714077,69.5726304 C480.715374,68.6417567 480.545299,67.7185087 480.212259,66.8485287 C479.775662,66.0197741 479.175993,65.28673 478.44888,64.6929469 C476.143903,62.590531 473.605058,60.7566611 470.881665,59.2269632 C469.650672,58.678514 468.565057,57.8525314 467.710842,56.8144671 C467.196118,55.9251926 466.863014,54.9436273 466.730634,53.9260663 L465.894724,49.6901878 C465.745609,48.469482 465.326319,47.2967956 464.667003,46.2564489 C463.190183,44.275857 460.365223,44.0057762 457.887258,43.9092224 L448.808931,43.5551916 C445.985103,43.4450211 442.264137,42.639843 439.507422,43.1912578 C436.933145,43.7062117 437.788295,46.0649167 438.255934,48.2127337 C438.934067,50.8058547 439.321373,53.4656612 439.410771,56.1435416 L439.410771,56.1435416 Z" id="Path" fill="#A0626B"></path>
                        <path d="M439.410771,56.1435416 C438.936568,60.3447598 435.713912,63.7288713 434.519916,67.7862715 C432.722585,73.8932468 435.830369,80.4463054 440.081446,85.2026521 C447.009692,92.8725803 456.73764,97.4653696 467.094152,97.9559764 C468.600404,98.0876574 470.117992,97.9232336 471.560375,97.4720818 C472.848175,96.9567808 474.007688,96.1688366 474.958339,95.1630041 C478.059176,91.8217735 480.020595,87.5928052 480.563214,83.0784672 C481.089847,78.5942491 481.140413,74.067373 480.714077,69.5726304 C480.715374,68.6417567 480.545299,67.7185087 480.212259,66.8485287 C479.775662,66.0197741 479.175993,65.28673 478.44888,64.6929469 C476.143903,62.590531 473.605058,60.7566611 470.881665,59.2269632 C469.650672,58.678514 468.565057,57.8525314 467.710842,56.8144671 C467.196118,55.9251926 466.863014,54.9436273 466.730634,53.9260663 L465.894724,49.6901878 C465.745609,48.469482 465.326319,47.2967956 464.667003,46.2564489 C463.190183,44.275857 460.365223,44.0057762 457.887258,43.9092224 L448.808931,43.5551916 C445.985103,43.4450211 442.264137,42.639843 439.507422,43.1912578 C436.933145,43.7062117 437.788295,46.0649167 438.255934,48.2127337 C438.934067,50.8058547 439.321373,53.4656612 439.410771,56.1435416 L439.410771,56.1435416 Z" id="Path" fill="#010101" opacity="0.1"></path>
                        <path d="M490,321.838528 C489.317197,325.608327 488.517364,329.358682 487.567988,333.076593 C484.928314,343.399763 481.098182,353.489377 479.862633,364.072218 C479.823661,364.377447 479.791147,364.688554 479.758632,365 C471.682477,353.48949 464.880955,341.109418 457,329.475574 C457.591717,327.814452 458.189553,326.153443 458.638637,324.446876 C459.285188,321.689589 459.737119,318.890443 459.991102,316.070046 C461.038021,307.193773 462.299513,298.336943 463.404891,289.467113 L463.463462,289 C463.926022,290.883028 464.586425,292.712092 465.433701,294.456809 C470.726643,305.18876 483.302366,310.613124 489.453712,320.884406 C489.642152,321.202597 489.824248,321.520638 490,321.838528 Z" id="Path" fill="#010101" opacity="0.1"></path>
                        <path d="M439.240155,31.7944297 C439.19647,31.3177881 439.265333,30.8374245 439.441011,30.3933383 C439.964134,29.452237 441.330065,29.7083197 442.360489,29.9727369 C446.504401,31.0356574 450.870714,30.0734346 455.137272,30.3217539 C459.40383,30.5700731 464.209781,32.7403261 465.067851,37 C468.16469,34.7661834 470.834251,31.9753588 472.944987,28.7650492 C474.266313,27.0413329 474.988983,24.9206928 475,22.7347165 C474.767501,19.615941 472.195762,17.283567 469.814443,15.30569 L462.716155,9.40962091 C461.784575,8.53848754 460.70849,7.84241721 459.537921,7.35376598 C457.845828,6.96816859 456.102989,6.8678874 454.378957,7.0569246 C449.211803,7.06023552 443.702632,4.66769397 439.107186,7.07119582 C437.252632,8.20656408 435.635976,9.70240771 434.349486,11.4733535 L428.014001,19.1037755 C427.537126,19.5901098 427.188777,20.1911737 427.001306,20.8511437 C426.984047,21.7999278 427.137926,22.7438899 427.455308,23.6362009 C427.754572,25.3407555 427.03295,27.1600506 427.587715,28.7966742 C428.508735,31.5139145 431.751714,31.8990092 433.734463,33.4570839 C434.473365,34.0377513 435.631484,36.0056955 436.511883,35.9816057 C438.100439,35.9382212 439.198862,33.0501829 439.240155,31.7944297 Z" id="Path" fill="#403E56"></path>
                        <circle id="Oval" fill="#A0626B" cx="449.5" cy="33.5" r="20.5"></circle>
                        <path d="M454.079093,79.1482655 C452.658978,75.0568954 448.766705,72.3628229 444.460024,72.4903385 C443.859673,72.6027562 443.239404,72.5238557 442.685781,72.2646479 C442.372652,72.0227108 442.12244,71.7080937 441.956544,71.3477022 C440.716311,69.1044757 439.719247,66.7337391 438.982511,64.2762929 C438.657153,63.1903913 438.21221,61.9102302 437.120046,61.6279185 C436.198695,61.5066012 435.28588,61.9059722 434.745965,62.6666168 C434.227257,63.4178133 433.6604,64.13419 433.049,64.8111874 C430.483697,67.1181325 425.936344,65.0154322 423.213551,67.1320893 C422.768834,67.4778303 422.401846,67.9207012 421.934679,68.2351247 C421.467153,68.5182198 420.963258,68.735531 420.437058,68.8809922 C415.179255,70.6074142 410.024985,72.6378497 405,74.9621546 C406.811021,85.9324838 408.666492,97.094009 412.912176,107.36219 C414.93247,112.248747 417.221714,117.03443 418.839709,122.070199 C422.424184,133.22798 422.58314,145.166203 422.623415,156.891784 C422.650942,164.917017 422.611231,173.113588 420.029795,180.707183 C419.335397,182.385328 418.845928,184.14199 418.572111,185.938687 C418.312947,187.771076 419.001191,189.609821 420.39746,190.815372 C421.242641,191.371325 422.209263,191.71283 423.214454,191.810612 C427.687461,192.470663 432.196794,191.273448 436.601097,190.247458 C448.405959,187.497756 460.445477,185.924276 472.46198,184.354995 L492.597788,181.725343 C494.041128,181.626745 495.453732,181.259541 496.763825,180.642392 C500.44848,178.61322 500.798207,173.038585 498.510091,169.495277 C497.413077,167.796641 495.865366,166.403011 494.943666,164.602026 C494.021967,162.80104 493.943447,160.282588 495.530305,159.03522 C498.757946,156.497818 497.795181,151.790202 497.949174,147.67274 C498.379601,136.15999 498.321351,124.642852 497.774423,113.121326 C497.612766,110.736292 497.574846,108.344403 497.660819,105.955397 C498.01863,101.907159 498.762263,97.9028536 499.881472,93.9976576 L506,69.7671878 C504.401635,67.2268362 501.340735,65.6150042 498.442176,64.8832404 C495.543617,64.1514766 492.523556,63.9361118 489.668431,63.0462853 C483.819418,61.2234003 478.612548,56.5970284 472.503609,57.0282119 C472.041564,57.0365821 471.587155,57.1482077 471.173293,57.3550036 C469.795595,58.1399845 470.013779,60.1368179 469.92567,61.7269772 C469.730839,65.2445268 467.158315,68.1851982 464.317292,70.2467092 C461.476269,72.3082202 458.231706,73.8113485 455.622292,76.1623198 C454.68582,76.8720424 454.118592,77.9695765 454.079093,79.1482655 Z" id="Path" fill="#DEBF6B"></path>
                        <path d="M373.041951,101.481522 C371.664452,102.351333 370.20063,103.084272 368.67254,103.669299 C367.176244,104.102473 365.762514,104.770087 364.486963,105.645879 C363.899129,106.140683 363.406302,106.733168 363.03145,107.39572 C361.599067,109.86705 361.662521,112.901128 363.197046,115.313705 C364.73157,117.726282 367.493907,119.134909 370.405873,118.989776 C372.305931,118.782574 374.152677,118.246781 375.859107,117.40764 L390.51075,111.229473 C392.990568,110.183884 395.669618,108.958402 396.841565,106.58872 C396.97814,106.367671 397.028769,106.106308 396.984267,105.852045 C396.866123,105.583188 396.652499,105.364679 396.382438,105.236453 C393.077661,103.147975 390.187533,100.496051 387.851118,97.4082852 C387.249978,96.6144781 386.514409,94.7389691 385.664747,94.2627967 C382.563337,92.5252536 375.524297,99.9140324 373.041951,101.481522 Z" id="Path" fill="#A0626B"></path>
                        <path d="M527.451013,96 L532.771983,102.114285 C533.914292,103.426831 535.058186,104.740971 536.099428,106.136056 C538.656409,109.680823 540.7077,113.568072 542.193632,117.68473 C543.350202,120.73766 544.310068,123.989595 543.906021,127.231284 C543.637657,128.893183 543.191442,130.521021 542.575156,132.086418 C541.599935,135.097027 540.391015,138.025886 538.959559,140.845946 C537.755582,142.988523 536.395653,145.038552 534.890909,146.979243 C530.7712,152.471716 526.263363,157.65841 521.40242,162.499026 C519.583303,164.310451 518.820481,167.239401 518.028572,169.687916 C516.568004,174.204126 513.092522,177.721667 509.731689,181.057166 C508.651674,182.204397 507.458015,183.237684 506.169286,184.140949 C504.238529,185.39181 501.982182,186.038197 499.685975,185.998255 C498.68087,186.005303 497.685686,185.798067 496.765972,185.390196 C494.466073,184.291569 493.297167,181.616384 493.057568,179.06666 C492.843436,176.752806 493.228921,174.422617 494.17645,172.303217 C497.229777,165.499472 505.070663,162.551168 510.612897,157.586855 C513.744523,154.540798 516.493698,151.120588 518.79909,147.402528 C520.464001,145.144315 521.853965,142.693593 522.939269,140.10275 C524.176988,136.780685 523.695188,132.847829 524.776494,129.470889 C525.233622,128.043471 526.046243,126.754606 526.537777,125.3388 C527.139836,123.940291 527.049146,122.337787 526.293198,121.017041 C525.644569,120.238443 524.817907,119.629685 523.884083,119.242958 C520.343636,117.43529 516.378204,115.109048 515.700605,111.173687 C515.430574,108.991339 515.99747,106.787501 517.285895,105.010789 C518.569741,103.257748 520.070038,101.676088 521.75067,100.303885 C523.298498,98.9265596 525.902506,97.3773251 527.451013,96 Z" id="Path" fill="#A0626B"></path>
                        <path d="M369.827554,110.41744 C369.032268,108.423424 367.609115,106.738548 365.770656,105.614463 C363.891467,104.803804 361.759802,104.79492 359.873835,105.589889 C358.013844,106.38664 356.272494,107.432866 354.698373,108.699377 L350.058434,112.097617 C349.006403,112.783297 348.075607,113.636966 347.303646,114.62414 C346.571477,115.821623 346.083957,117.150722 345.868944,118.535489 C345.06023,121.693537 344.813352,124.967747 345.139456,128.210274 C345.875814,133.40963 349.030441,137.948315 352.502695,141.905855 C354.672382,144.378906 357.351256,146.874597 360.651414,146.980063 C362.102622,147.129816 363.508862,146.426781 364.252711,145.179629 C364.457823,144.668968 364.566841,144.12523 364.574346,143.575452 C364.930788,137.776406 362.84297,132.112066 360.408328,126.829771 C359.632123,125.446573 359.173429,123.909909 359.065112,122.329881 C359.04771,122.063983 359.117317,121.799622 359.263543,121.576259 C359.473543,121.359118 359.754195,121.222952 360.055664,121.191939 C363.387654,120.537071 369.127493,123.109216 371.465153,119.43235 C372.980464,117.048951 370.90444,112.578984 369.827554,110.41744 Z" id="Path" fill="#A0626B"></path>
                        <path d="M437.240194,25.7944445 C437.196403,25.3178117 437.26523,24.837433 437.440938,24.3933572 C437.964062,23.4521444 439.330108,23.7083406 440.360422,23.9726429 C444.504343,25.0356745 448.870665,24.0734545 453.137231,24.321773 C457.403798,24.5700915 462.209871,26.7402242 463.06783,31 C466.164676,28.7661898 468.834242,25.9753731 470.944983,22.7650727 C472.26638,21.0413555 472.989059,18.9206612 473,16.7346431 C472.767501,13.6159908 470.195756,11.2836233 467.814544,9.30563786 L460.71613,3.40969983 C459.784581,2.53849557 458.708488,1.84238431 457.537889,1.35373662 C455.845786,0.968191648 454.102951,0.867911228 452.378915,1.05689608 C447.21175,1.06032117 441.70268,-1.33232771 437.107113,1.07116726 C435.252527,2.20654179 433.635862,3.70242456 432.349402,5.47342656 L426.014017,13.1038267 C425.537195,13.5899774 425.188846,14.1908415 425.00132,14.8506191 C424.983967,15.7993977 425.137809,16.7433677 425.45521,17.6356683 C425.754475,19.3403321 425.032851,21.1596221 425.587618,22.7966977 C426.508639,25.5139302 429.751737,25.8990238 431.734378,27.4569799 C432.473395,28.0376456 433.631516,30.0055842 434.511916,29.9816086 C436.100363,29.9382242 437.198901,27.0501942 437.240194,25.7944445 Z" id="Path" fill="#403E56"></path>
                        <path d="M394.084353,81.7891241 C393.247408,82.3207385 392.512777,82.9942781 391.914562,83.7784786 C391.154648,84.9101872 391.000097,86.3388818 390.347268,87.533827 C388.950346,90.0906166 385.682761,91.0005456 383.644361,93.0978539 C383.320556,93.3862886 383.095552,93.7665397 383.000361,94.1862003 C382.99047,94.7554826 383.184321,95.3100332 383.547939,95.7526602 L393.377523,110.972571 C396.650267,111.256458 399.790015,109.236954 403.064135,109.50458 C404.258322,109.783919 405.495381,109.838249 406.710072,109.664704 C407.549367,109.298138 408.335993,108.824307 409.049663,108.255432 C411.002991,107.039031 413.604677,106.897201 415.243514,105.292234 C416.816197,103.751972 417.016953,101.342095 416.997691,99.1577232 C417.023851,97.2607326 416.827645,95.3671059 416.412965,93.5144247 C414.965712,87.6723828 410.429272,83.1892493 407.585441,78.0143531 C406.200902,75.4949407 405.447523,74.0200609 402.517015,75.7499196 C399.572291,77.4892638 396.856182,79.7924297 394.084353,81.7891241 Z" id="Path" fill="#DEBF6B"></path>
                        <path d="M511.838696,74.1261274 C513.680321,75.3050352 515.340579,76.7386777 516.768583,78.3831145 C518.261345,80.2807804 519.106938,82.6031421 520.540493,84.5444157 C522.072035,86.3148647 523.693718,88.0075611 525.399285,89.6159759 C527.669353,92.3518847 529.553359,95.3781029 531,98.6122261 C527.115355,103.606768 522.879629,108.326133 518.324096,112.735476 C517.817021,113.324543 517.148894,113.757524 516.399278,113.982858 C515.363665,114.091267 514.341895,113.680605 513.678359,112.889286 C512.972555,112.159336 512.472377,111.259463 511.797662,110.501456 C510.205232,108.881977 508.082964,107.870121 505.806497,107.644985 C503.550285,107.429966 501.279908,107.399137 499.018545,107.552812 C498.522058,107.607314 498.019996,107.524114 497.568874,107.312575 C497.233393,107.0844 496.961388,106.776844 496.777801,106.418111 C494.124662,101.967199 494.978029,96.3793334 495.914148,91.3001108 L498.06208,79.6450325 C498.373237,77.41907 498.974031,75.2419089 499.849622,73.1673222 C500.663097,71.4533268 502.482415,68.5467125 504.718815,69.0598632 C506.975103,69.5770704 509.941539,72.780938 511.838696,74.1261274 Z" id="Path" fill="#DEBF6B"></path>
                        <circle id="Oval" fill="#FFFFFF" cx="122.5" cy="118.5" r="32.5"></circle>
                        <path d="M122.5,81 C101.237037,81 84,98.2370371 84,119.5 C84,140.762963 101.237037,158 122.5,158 C143.762963,158 161,140.762963 161,119.5 C161,98.2370371 143.762963,81 122.5,81 Z M114.59634,140.027158 L94.8651378,120.295843 L100.399526,114.761455 L114.614934,128.976864 L144.618956,98.9728423 L150.153344,104.50723 L114.596453,140.027158 L114.59634,140.027158 Z" id="Shape" fill="#56B894"></path>
                        <path d="M129.577365,398 L386.494215,398 C404.494164,398.013761 422.385796,395.217463 439.521978,389.712104 C439.839647,388.187186 440,386.633707 440,385.076096 L440,238.809945 C440,235.7604 438.430678,232.925173 435.845674,231.304547 C433.26067,229.68392 430.023342,229.505691 427.275837,230.832738 L250.500057,316.217272 L71.4274804,229.723419 C69.1759087,228.636032 66.5230059,228.782133 64.4046358,230.110182 C62.2862657,231.438231 61,233.761578 61,236.260616 L61,378.364499 C81.5539295,391.2299 105.324463,398.035978 129.577365,398 L129.577365,398 Z" id="Path" fill="#626077"></path>
                        <path d="M427.073432,252.887228 L429.932901,270.431774 C431.497521,280.033981 433.126621,289.831924 437.704734,298.432263 C441.129376,304.865697 446.063271,310.355725 450.527005,316.127655 C461.500305,330.317531 469.744121,346.391504 480.149286,360.996826 C481.688516,363.276842 483.579157,365.302609 485.752024,367 C494.8251,360.730876 503.278918,353.622034 511,345.768899 C510.750639,345.499528 510.472384,345.257994 510.170184,345.048595 C508.959288,344.38276 507.673679,343.860635 506.339862,343.492987 C501.151919,341.534484 497.794036,336.505925 495.657522,331.42128 C493.521009,326.336635 492.226387,320.869449 489.379335,316.140094 C483.194337,305.866207 470.546595,300.440633 465.222742,289.702563 C462.240919,283.688081 461.956795,276.755184 461.728835,270.056244 L461.147827,252.978029 C460.944302,251.113622 461.167042,249.227661 461.799467,247.460523 C463.835842,242.914806 469.984499,242.491104 474.96328,241.914748 C480.613686,241.25733 486.087412,239.543103 491.094789,236.862782 C493.962233,235.325832 496.763715,233.366424 498.297804,230.51246 C499.697349,227.908737 499.890562,224.854738 500.054612,221.90805 L501.778382,190.957595 C502.110242,188.303104 501.884922,185.609165 501.116603,183.045333 C498.742218,176.777218 490.768171,174.728931 484.02814,175.028135 C471.486461,175.584702 459.908344,180.939716 448.083013,184.555936 C445.154057,185.472991 442.180384,186.242896 439.173317,186.862718 C436.518909,187.391355 433.307303,187.171985 430.77616,188.018936 C426.274603,189.525355 426.388868,199.296385 425.750557,203.34965 C424.432126,211.243657 423.856233,219.242267 424.030318,227.242144 C424.486443,235.8467 425.502937,244.412951 427.073432,252.887228 L427.073432,252.887228 Z" id="Path" fill="#302E41"></path>
                        <path d="M458.811315,381.804486 C459.19449,381.861289 459.574485,381.933655 459.955616,382 C466.08886,379.121243 472.047795,375.88464 477.801642,372.306908 C477.835712,372.222613 477.877618,372.141499 477.909985,372.056296 C478.649694,369.819845 479.094542,367.496408 479.233267,365.144814 C479.265861,364.83172 479.298454,364.518739 479.337521,364.212461 C480.576083,353.577359 484.415327,343.438027 487.061665,333.064103 C488.013356,329.327758 488.815025,325.558809 489.499607,321.770434 C491.481237,310.777023 492.510948,299.594801 493.521353,288.457452 C494.812004,274.305869 496.102655,260.152089 497.393305,245.996113 C497.810051,242.169835 498.012403,238.323225 497.999412,234.474326 C497.968828,231.338347 497.52166,228.220349 496.669657,225.202253 C496.245938,223.787193 478.086127,230.235963 476.436908,230.953263 C473.175578,232.180537 470.065586,233.777635 467.1678,235.713299 C464.743031,237.545629 465.010027,239.097468 465.192757,242.025175 C465.323131,244.046429 465.408534,246.061435 465.460093,248.076214 C465.824984,261.684351 464.560416,275.259997 462.898363,288.770433 L462.839649,289.239848 C461.731463,298.153384 460.467008,307.053857 459.417536,315.973869 C459.162908,318.808175 458.709799,321.621117 458.061546,324.391976 C457.611821,326.107406 457.012301,327.776259 456.419141,329.445339 C455.988722,330.658183 455.565231,331.870913 455.213287,333.10341 C454.257396,336.807932 453.609857,340.585286 453.277311,344.396737 C452.258161,353.256009 451.236929,362.119484 450.213615,370.987162 C449.887905,373.843298 449.672696,377.096936 451.615259,379.222593 C453.368619,381.14592 456.236185,381.420275 458.811315,381.804486 Z" id="Path" fill="#302E41"></path>
                    </g>
                </g>
            </g>
        </g>
    </g>
</svg>