<?xml version="1.0" encoding="UTF-8"?>
<svg width="555px" height="413px" viewBox="0 0 555 413" version="1.1" xmlns="http://www.w3.org/2000/svg" xmlns:xlink="http://www.w3.org/1999/xlink">
    <title>SafeTravel-apply</title>
    <g id="Landing-Page" stroke="none" stroke-width="1" fill="none" fill-rule="evenodd">
        <g id="Homepage" transform="translate(-80.000000, -843.000000)" fill-rule="nonzero">
            <g id="How-to-Apply" transform="translate(0.000000, 725.000000)">
                <g id="Step-1" transform="translate(0.000000, 89.000000)">
                    <g id="SafeTravel-apply" transform="translate(80.000000, 29.000000)">
                        <path d="M395.581803,94.3145501 C390.504253,94.3145501 385.485153,94.562465 380.528855,95.0265562 C341.644509,34.3617137 273.917756,-1.63691706 201.856447,0.0572597903 C89.3475531,2.57567138 0,95.7047076 0,208.188391 L0,208.2206 C0,321.317139 91.7263193,413 204.876468,413 L395.581803,413 C483.625996,413 555,341.65993 555,253.657451 C555,165.654889 483.62608,94.3146799 395.581803,94.3145501 Z" id="Path" fill="#EFEFEF"></path>
                        <rect id="Rectangle" fill="#E6E6E5" x="0" y="28" width="440" height="282"></rect>
                        <rect id="Rectangle" fill="#FFFFFF" x="13" y="64" width="414" height="230"></rect>
                        <rect id="Rectangle" fill="#F26767" x="0" y="29" width="440" height="19"></rect>
                        <circle id="Oval" fill="#FFFFFF" cx="14.5" cy="38.5" r="3.5"></circle>
                        <circle id="Oval" fill="#FFFFFF" cx="27.5" cy="38.5" r="3.5"></circle>
                        <circle id="Oval" fill="#FFFFFF" cx="39.5" cy="38.5" r="3.5"></circle>
                        <rect id="Rectangle" fill="#E6E6E5" x="142" y="85" width="155" height="16"></rect>
                        <rect id="Rectangle" fill="#E6E6E5" x="142" y="121" width="155" height="6"></rect>
                        <rect id="Rectangle" fill="#E6E6E5" x="142" y="139" width="155" height="6"></rect>
                        <rect id="Rectangle" fill="#E6E6E5" x="142" y="157" width="80" height="6"></rect>
                        <rect id="Rectangle" fill="#E6E6E5" x="142" y="175" width="155" height="6"></rect>
                        <rect id="Rectangle" fill="#E6E6E5" x="142" y="194" width="155" height="6"></rect>
                        <rect id="Rectangle" fill="#E6E6E5" x="142" y="212" width="77" height="6"></rect>
                        <rect id="Rectangle" fill="#E6E6E5" x="142" y="230" width="155" height="6"></rect>
                        <rect id="Rectangle" fill="#E6E6E5" x="142" y="249" width="155" height="6"></rect>
                        <rect id="Rectangle" fill="#F26767" x="249" y="271" width="49" height="16"></rect>
                        <path d="M307,266.054539 L306.632678,266.347546 L298.156222,273.109431 C298.156222,273.109431 286.153918,285.936528 281.732029,278.881636 C277.31014,271.826744 294.366015,263.489402 294.366015,263.489402 L300.682949,259 L307,266.054539 Z" id="Path" fill="#9F626B"></path>
                        <path d="M444,273.588179 C444,273.588179 438.879995,291.70591 437.600023,293 L428,278.764657 L432.480019,271 L444,273.588179 Z" id="Path" fill="#9F626B"></path>
                        <path d="M428.090927,276 L437,293.326475 L432.545464,310.652949 L432.545464,365.198954 L431.567,408.619617 L407.922928,413 L391.182061,314.50329 L373.911607,413 L346.258369,413 L347.273159,361.990199 L346,312.577943 C346,312.577943 346.636346,283.700564 352.999919,281.133748 C359.363493,278.566933 428.090927,276 428.090927,276 Z" id="Path" fill="#302E41"></path>
                        <circle id="Oval" fill="#9F626B" cx="373" cy="116" r="22"></circle>
                        <polygon id="Path" fill="#9F626B" points="390.889021 126 394 151 366 151 368.333828 129.787388"></polygon>
                        <path d="M337,162.524681 C337,162.524681 364.514102,144 377.951286,144 C391.388471,144 425.301182,151.026482 430.420093,159.330346 L426.58088,248.757306 C426.58088,248.757306 435.539004,262.171403 430.420093,267.281987 C425.301182,272.392571 431.379867,282.931708 431.379867,282.931708 C431.379867,282.931708 391.388471,280.696084 377.951286,286.444949 C364.514102,292.193814 348.517637,286.444949 348.517637,286.444949 C348.517637,286.444949 355.236171,277.821593 348.837562,275.266594 C342.438953,272.711594 352.676774,231.830554 352.676774,231.830554 L349.797101,205.960251 L337,162.524681 Z" id="Path" fill="#3C7CA4"></path>
                        <path d="M425.590256,158.965674 L430.447329,158 C430.447329,158 461.856341,208.538119 459.913441,219.483132 C457.97054,230.428146 445.666021,280 445.666021,280 L428.828225,275.492931 L438.54237,228.495853 L423,189.224167 L425.590256,158.965674 Z" id="Path" fill="#3C7CA4"></path>
                        <path d="M344.296232,164.886236 L337.623654,162 C336.529075,165.03953 335.222453,167.996943 333.713607,170.850016 C325.831109,185.814387 323.325423,234.798924 323.325423,234.798924 L296,257.889162 L305.532154,272 C305.532154,272 341.096063,251.201821 346.838077,239.288624 C351.633314,229.339258 350.968693,194.069873 350.968693,194.069873 L344.296232,164.886236 Z" id="Path" fill="#3C7CA4"></path>
                        <path d="M391.846971,133 C391.846971,133 414.384315,116.550317 402.579028,96.8108893 C394.389266,83.1166656 377.418092,84.2007767 367.792133,86.149069 C362.527154,87.1419107 358.077675,90.7190368 355.894321,95.7142278 C354.284536,99.5524832 354.284536,103.390738 360.723793,103.390738 C373.602543,103.390738 367.163051,113.260452 367.163051,113.260452 C367.163051,113.260452 375.748884,115.453775 373.602309,123.130166 C371.455734,130.806558 391.846971,133 391.846971,133 Z" id="Path" fill="#302E41"></path>
                    </g>
                </g>
            </g>
        </g>
    </g>
</svg>